<svg xmlns="http://www.w3.org/2000/svg" viewBox="0 0 96 96"><defs><linearGradient id="b" x1="0" y1="0" x2="1" y2="1"><stop offset="0" stop-color="#94a3b8"/><stop offset="1" stop-color="#10b981"/></linearGradient></defs><path d="M48 6l32 14v26c0 24-15 42-32 48C31 88 16 70 16 46V20L48 6z" fill="url(#b)"/><path d="M24 53h48c4 0 6 5 4 8l-4 5c-1 2-3 3-5 3H33c-2 0-4-1-5-3l-4-5c-2-3 0-8 4-8z" fill="#0b1220" opacity=".9"/><circle cx="34" cy="68" r="6" fill="#e5e7eb"/><circle cx="62" cy="68" r="6" fill="#e5e7eb"/></svg>